<svg xmlns="http://www.w3.org/2000/svg" viewBox="0 0 122.79 175.56"><title>Ativo 5</title><g id="Camada_2" data-name="Camada 2"><g id="Objects"><path class="cls-1" d="M49.55,172.42s13.49,7.06,27.59,0c0,0,6.27-87.77,7.06-108.15S87.33,0,62.25,0,34.82,32.92,41.09,74.46,49.55,172.42,49.55,172.42Z"/><path class="cls-1" d="M76.62,98l.07,0h.06l.54.1c.52.09,1.32.24,2.36.37A38.72,38.72,0,0,0,88,98.7a17.46,17.46,0,0,0,4.38-.93,5.08,5.08,0,0,0,2.37-1.52,2.46,2.46,0,0,0,.38-.76.36.36,0,0,1,0-.11l0-.06,0,0h0c.18-.37-.23.5-.19.39l0,0,.39-1,.1-.25a.84.84,0,0,0,.06-.19l0-.16a2.21,2.21,0,0,1,.06-.32,45.78,45.78,0,0,0,1-6.63,137.32,137.32,0,0,0,.43-15.63c-.1-5.16-.38-10.06-.68-14.25s-.64-7.69-.89-10.12c-.13-1.2-.24-2.14-.31-2.79s-.11-.91-.11-.91v0a13.8,13.8,0,1,1,27.39-3.33c0,.39.08.81.1,1.19,0,0,0,.41,0,1.18s0,1.77.07,3.1c0,2.66.08,6.44,0,11s-.21,9.84-.59,15.59A160.89,160.89,0,0,1,120,90.56a67.19,67.19,0,0,1-2.69,10.32c-.2.55-.44,1.14-.66,1.7l-.36.84a2,2,0,0,1-.14.31l-.12.23-.47,1,0,0c0-.08-.38.81-.22.46l0,.1-.12.2-.24.41-.48.8a24.25,24.25,0,0,1-4.83,5.68,25.53,25.53,0,0,1-5.77,3.78,29.07,29.07,0,0,1-5.62,2,39.85,39.85,0,0,1-9.54,1.13,56.18,56.18,0,0,1-7.31-.52c-2.11-.28-3.89-.63-5.36-1s-2.61-.64-3.42-.86l-1.36-.41a9.79,9.79,0,0,1,5-18.92Z"/><path class="cls-1" d="M51.54,116.79l-1.36.41c-.81.22-2,.53-3.42.86s-3.25.67-5.36,1a56.18,56.18,0,0,1-7.31.52,39.85,39.85,0,0,1-9.54-1.13,29.31,29.31,0,0,1-5.62-2,25.53,25.53,0,0,1-5.77-3.78,24.25,24.25,0,0,1-4.83-5.68l-.48-.8-.24-.41-.12-.2,0-.1c.16.35-.26-.54-.22-.45l0,0-.47-1-.12-.24a2,2,0,0,1-.14-.31l-.36-.84c-.22-.56-.46-1.15-.66-1.7A66.89,66.89,0,0,1,2.76,90.56,160.64,160.64,0,0,1,.62,72.09C.24,66.34.1,61,0,56.5s0-8.32,0-11c0-1.33.06-2.39.07-3.1s0-1.18,0-1.18a13.8,13.8,0,0,1,27.58.95,11.3,11.3,0,0,1-.09,1.17v0s0,.31-.11.91-.18,1.59-.31,2.79c-.25,2.43-.58,5.93-.89,10.12s-.58,9.09-.69,14.25a137.31,137.31,0,0,0,.44,15.63,47.44,47.44,0,0,0,1.05,6.63,2,2,0,0,1,.06.32l0,.16a.84.84,0,0,0,.06.19l.1.24.39,1v0c0,.11-.36-.76-.18-.39h0l0,0,0,.06a.36.36,0,0,1,0,.11,2.46,2.46,0,0,0,.38.76,5.08,5.08,0,0,0,2.37,1.52,17.46,17.46,0,0,0,4.38.93,38.72,38.72,0,0,0,8.33-.25c1-.13,1.85-.28,2.36-.37L46,98h.06l.07,0,.32-.07a9.79,9.79,0,0,1,5,18.91Z"/></g></g></svg>