<svg xmlns="http://www.w3.org/2000/svg" viewBox="0 0 135.46 175.28"><defs></defs><title>Ativo 10</title><g id="Camada_2" data-name="Camada 2"><g id="Objects"><path class="cls-1" d="M50.48,172.42c2.61,1.37,24.22,5.69,35.6,0,3.89-46.21,5.67-68.21,3.49-112.21C88.27,34.05,84.4,0,67.19,0S45.12,32.46,46,74.46C47,118.21,50.48,172.42,50.48,172.42Z"/><path class="cls-1" d="M71.16,84.05l-.57,1.43c-.37.89-.91,2.17-1.65,3.78a104.06,104.06,0,0,1-7,13,65.56,65.56,0,0,1-6.27,8.3,42.81,42.81,0,0,1-4.4,4.28,31.1,31.1,0,0,1-5.9,4,23.89,23.89,0,0,1-8.12,2.5,22.12,22.12,0,0,1-9.37-1,26.09,26.09,0,0,1-4.16-1.84l-.93-.55-.46-.28c-.12-.08.18.14-.29-.19l0,0-.07,0-.15-.1-.6-.37c-.25-.17-.65-.47-1-.7-.71-.53-1.18-1-1.73-1.41s-1-.93-1.52-1.41a33.69,33.69,0,0,1-2.66-3A48.63,48.63,0,0,1,7.19,97.76a84.56,84.56,0,0,1-3.7-12.18,143.55,143.55,0,0,1-3-21.17C.05,58.27,0,53.18,0,49.57c0-1.8.05-3.23.09-4.23,0-.52,0-.92.05-1.18l0-.5A14.5,14.5,0,0,1,29,47.21a143.1,143.1,0,0,0-2.27,17.11,121.16,121.16,0,0,0-.16,17.57A62.87,62.87,0,0,0,27.82,91a29.63,29.63,0,0,0,2.74,7.7,16.36,16.36,0,0,0,.88,1.45c.16.21.31.43.47.63s.35.43.38.48,0,.08.14.2L33,102l.13.12.07.06,0,0c-.45-.31-.11-.08-.21-.15l.13.11.25.21a9.61,9.61,0,0,0,.9.61,3.85,3.85,0,0,0,1.53.54,5.8,5.8,0,0,0,2.27-.35,19.88,19.88,0,0,0,6.09-3.91,50.47,50.47,0,0,0,5.48-5.79A91,91,0,0,0,56.93,83c.8-1.34,1.4-2.4,1.8-3.12s.56-1,.56-1l.15-.28a6.49,6.49,0,0,1,11.72,5.52Z"/><path class="cls-1" d="M72.1,118.8l.8,1c.56.67,1.43,1.67,2.59,2.88s2.6,2.65,4.33,4.16a48.59,48.59,0,0,0,6,4.48,24.92,24.92,0,0,0,7,3.16,9.53,9.53,0,0,0,6-.26,10,10,0,0,0,2.59-1.62l.17-.13-.26.18,0,0,.08-.06.14-.12.56-.48v-.09s0,0,0,0l.1-.15a12.09,12.09,0,0,0,.89-1.3,32.17,32.17,0,0,0,3.19-8.61,81.8,81.8,0,0,0,1.77-10.88c.38-3.74.59-7.52.68-11.22.19-7.4-.06-14.43-.42-20.45s-.84-11.06-1.22-14.54c-.2-1.72-.36-3.07-.46-4s-.18-1.29-.18-1.29v0a14.53,14.53,0,0,1,28.79-3.94,17.21,17.21,0,0,1,.13,1.73s0,.6,0,1.71,0,2.57,0,4.52c0,3.86-.16,9.32-.54,15.89s-1,14.24-2.21,22.53c-.59,4.14-1.34,8.44-2.33,12.85a102.85,102.85,0,0,1-3.91,13.51A50.6,50.6,0,0,1,118.92,142a30.73,30.73,0,0,1-3.15,3.35l-.44.41-.55.46-1.16.92-.66.44-.16.1-.08.05-.37.27-.47.28a28.15,28.15,0,0,1-8.25,3.39,25.9,25.9,0,0,1-8.72.52,29.71,29.71,0,0,1-7.55-1.9,41.11,41.11,0,0,1-10.78-6.51,62.06,62.06,0,0,1-7-6.76c-1.89-2.12-3.4-4-4.59-5.64s-2.08-2.91-2.68-3.83-1-1.5-1-1.5a6.49,6.49,0,0,1,10.46-7.63Z"/></g></g></svg>