<svg xmlns="http://www.w3.org/2000/svg" viewBox="0 0 139.08 181.69">
<title>Ativo 7</title><g id="Camada_2" data-name="Camada 2"><g id="Objects"><path class="cls-1" d="M56.75,178.56s13.5,7.05,27.6,0c0,0,6.27-87.78,7.06-108.16s3.13-64.26-22-64.26S42,39.06,48.3,80.59,56.75,178.56,56.75,178.56Z"/><path class="cls-1" d="M76,136.17l.88.2c.64.14,1.61.34,2.86.57A74.51,74.51,0,0,0,90,138.1a36.73,36.73,0,0,0,6.14-.24,10.26,10.26,0,0,0,4.2-1.25c.12-.1.16-.17.13-.19s0,0-.09,0h0l-.33.35,0,0,.19-.23.09-.11s.11-.12,0-.05a2.5,2.5,0,0,0-.23.23l-.2.25s0,0,0,0,0,0,0,0l0-.1.07-.18c.1-.28.24-.67.38-1.15a52.38,52.38,0,0,0,1.55-7.54c.42-2.84.72-5.84,1-8.82s.41-6,.54-8.9c.25-5.82.33-11.34.34-16.07s-.06-8.68-.12-11.43-.13-4.23-.13-4.23v-.23a13.8,13.8,0,0,1,27.58-.8c0,.33,0,.7,0,1,0,0-.07,1.69-.21,4.67s-.39,7.06-.77,12-.9,10.8-1.64,17.08c-.38,3.14-.81,6.4-1.33,9.74s-1.13,6.77-1.91,10.3a74,74,0,0,1-3.3,11.16c-.41,1-.89,2.09-1.48,3.23l-.47.88-.56.93c-.17.29-.42.65-.64,1l-.36.52-.56.72-.57.69a1.47,1.47,0,0,1-.16.17l-.1.11-.21.21-.4.42-.11.11-.22.21a20,20,0,0,1-1.85,1.53,22.86,22.86,0,0,1-3.75,2.27,28.43,28.43,0,0,1-6.85,2.25,39.45,39.45,0,0,1-5.84.68,58.93,58.93,0,0,1-9.54-.42,93.53,93.53,0,0,1-12.93-2.54c-1.51-.4-2.7-.75-3.53-1L70.38,155a9.79,9.79,0,0,1,5-18.91Z"/><path class="cls-1" d="M66.08,132.13l-1.33.11c-.82.06-2,.14-3.51.22-3,.15-7.27.29-12.53.1-2.64-.09-5.52-.29-8.68-.69-1.58-.21-3.23-.46-5-.83a46.06,46.06,0,0,1-5.5-1.45,31.94,31.94,0,0,1-6.31-2.83c-.58-.36-1.17-.74-1.74-1.13l-.87-.7-.11-.09c-.17-.15-.38-.35-.56-.53-.38-.37-.74-.75-1.08-1.15l-.33-.42-.26-.34a22.49,22.49,0,0,1-2.47-4.31A45.86,45.86,0,0,1,13.66,112c-.54-1.85-1-3.62-1.37-5.36-.78-3.47-1.39-6.82-1.94-10.1s-1-6.47-1.43-9.55c-.83-6.16-1.47-11.86-2-16.76s-.86-9-1.11-11.83-.36-4.56-.36-4.56a13.85,13.85,0,0,1,27.62-2.18c0,.35.16.69.16,1v.19s-.11,1.55-.11,4.26,0,6.68.13,11.39.27,10.2.6,16c.17,2.9.36,5.89.62,8.88s.57,6,1,8.82c.2,1.41.43,2.79.68,4s.55,2.4.73,3c0,.25.16.39-.26-.16l-.24-.29a6.6,6.6,0,0,0-.69-.71,4.64,4.64,0,0,0-.36-.31l.1.1.11.1.05,0,0,0c.57.47-.75-.6-.61-.49a1.53,1.53,0,0,1,.18.18,9,9,0,0,0,2,1.09,23.9,23.9,0,0,0,3,1.05c1.07.32,2.21.6,3.35.84,2.29.47,4.59.82,6.76,1.07,4.34.5,8.1.56,10.71.63,1.3,0,2.32-.06,3-.06h1.31a9.91,9.91,0,0,1,.82,19.78Z"/><path class="cls-2" d="M57.25,13.68c.49-4.73-1.06-9-2.67-13.33"/><path class="cls-2" d="M57.25,13.68c-2.29-2.5-6.19-3.41-8.67-6"/><path class="cls-2" d="M79.92,13.68a24.08,24.08,0,0,0,2-11.33"/><path class="cls-2" d="M80.58,13.68a28.39,28.39,0,0,1,7.34-3.33"/><path class="cls-2" d="M89.25,36.35c3-2.92,4.77-6.7,8-9.33"/><path class="cls-2" d="M89.92,35a13.41,13.41,0,0,1,7.33,4.66"/><path class="cls-2" d="M89.25,67.68c3.1.66,5.9-3,9.33-4"/><path class="cls-2" d="M90.58,67.68a47.1,47.1,0,0,0,6.67,6"/><path class="cls-2" d="M116.58,66.35c.22-3.14-.78-7-.66-10.67"/><path class="cls-2" d="M117.92,67c3-2.26,6-5.48,9.33-7.34"/><path class="cls-2" d="M128.58,92.35c3.63-2.1,6.41-5.25,10-7.33"/><path class="cls-2" d="M127.92,92.35a10.17,10.17,0,0,1,7.33,6"/><path class="cls-2" d="M122.58,122.35c4,.07,7-1.92,10.67-3.33"/><path class="cls-2" d="M123.92,122.35c1.82,3.32,4,6.77,6,10"/><path class="cls-2" d="M15.25,42.35c.87-.13,1.3-.57,1.32-1.33-2.8-2.82-4.81-6.65-4.65-10.67"/><path class="cls-2" d="M17.25,43.68c1.54-3.91,4.4-7.54,5.33-12"/><path class="cls-2" d="M7.92,63.68C6.79,62.12,3.17,59.84.58,58.35"/><path class="cls-2" d="M7.92,65.68A29.17,29.17,0,0,1,1.25,71"/><path class="cls-2" d="M11.92,95.68A31.36,31.36,0,0,1,.58,90.35"/><path class="cls-2" d="M13.25,95.68c-2.29,2.76-4.62,5.95-6.67,8.67"/><path class="cls-2" d="M31.92,75a67.91,67.91,0,0,1,6-6.67"/><path class="cls-2" d="M31.25,75.68c3,1.79,6.74,3.12,8.67,6"/><path class="cls-2" d="M48.58,35c-2.54-2.7-5-6.3-8-8.67"/><path class="cls-2" d="M48.58,39c-3.86-.37-7,1.68-10.66,2"/><path class="cls-2" d="M86.58,107.68c3.46-2,6.64-4.31,10-6.66"/>
<path class="cls-2" d="M86.58,111.68a20.82,20.82,0,0,1,6,6.67"/></g></g></svg>