<svg xmlns="http://www.w3.org/2000/svg" viewBox="0 0 138.51 175.56"><defs></defs><title>Ativo 13</title><g id="Camada_2" data-name="Camada 2"><g id="Objects"><path class="cls-1" d="M49,172.42s24.49,7.06,38.59,0c7.23-71.09,6.73-70.69,8.9-105.61C98.59,33.21,93.79,0,68.71,0S39.13,22.63,42.5,64.5C46.45,113.5,48.5,131.07,49,172.42Z"/><path class="cls-1" d="M77.52,120.34l.16-.18c.11-.13.26-.29.41-.48l1.52-1.82c.69-.81,1.49-1.87,2.43-3s2-2.54,3-4.07,2.28-3.15,3.47-4.93,2.41-3.67,3.67-5.62,2.43-4,3.66-6.15l1.75-3.21c.59-1.07,1.18-2.15,1.7-3.25,1.07-2.2,2.2-4.37,3.1-6.57l1.42-3.24c.46-1.07.82-2.15,1.22-3.2s.78-2.08,1.16-3.08.64-2,1-3c.57-1.94,1.23-3.75,1.56-5.46s.77-3.23,1.1-4.6.41-2.57.57-3.55l.5-3.07.15-.91a13.81,13.81,0,1,1,27.26,4.44c-.06.4-.15.83-.25,1.22,0,0-.38,1.46-1,4-.34,1.27-.73,2.82-1.22,4.58s-1.24,3.64-2,5.74-1.66,4.28-2.6,6.61c-.5,1.15-1,2.36-1.52,3.54L128,84.66c-.6,1.2-1.17,2.46-1.83,3.67s-1.35,2.43-2,3.67c-1.32,2.49-2.86,4.87-4.34,7.29-.72,1.21-1.51,2.38-2.3,3.54l-2.34,3.47c-1.62,2.25-3.2,4.46-4.79,6.54s-3.15,4.07-4.71,5.9-3,3.57-4.38,5.13-2.71,3-3.85,4.23-2.2,2.31-3.09,3.19l-1.18,1.17-1,.92-.74.7a9.8,9.8,0,0,1-14.09-13.6Z"/><path class="cls-1" d="M54.88,110l-.39,0-1.19,0c-.89,0-2.1,0-3.58-.17a44.45,44.45,0,0,1-11.63-2.77,49.3,49.3,0,0,1-7.15-3.49,51.29,51.29,0,0,1-7.12-5.21,53,53,0,0,1-6.39-6.73A64,64,0,0,1,12.15,84c-.73-1.34-1.48-2.69-2.16-4S8.7,77.22,8.12,75.86s-1.09-2.71-1.6-4-.9-2.68-1.34-4c-.76-2.61-1.52-5.16-2-7.55-.26-1.2-.56-2.37-.77-3.5s-.4-2.21-.59-3.26c-.42-2.1-.61-4-.86-5.69s-.39-3.17-.5-4.38C.2,41,.06,39.65.06,39.65A13.81,13.81,0,0,1,27.56,37c0,.45.06.89.06,1.33v.43s0,1.14,0,3.15c0,1,0,2.24.05,3.61s.06,3,.23,4.63c.07.84.14,1.71.21,2.62s.22,1.8.33,2.75c.2,1.91.59,3.82.95,5.82.22,1,.45,2,.68,3s.55,2,.83,3,.66,1.92,1,2.9S32.64,72.05,33,73a41.94,41.94,0,0,0,2.77,5.1A31.45,31.45,0,0,0,39,82.37a31.1,31.1,0,0,0,3.6,3.29A29.68,29.68,0,0,0,46.31,88a24.38,24.38,0,0,0,6,2.15c.72.15,1.25.22,1.55.26l.17,0c.09,0,0,0,0,0s.11,0,.08,0A9.8,9.8,0,0,1,54.88,110Z"/></g></g></svg>