<svg xmlns="http://www.w3.org/2000/svg" viewBox="0 0 117.88 183.73"><title>Ativo 4</title><g id="Camada_2" data-name="Camada 2"><g id="Objects"><path class="cls-1" d="M34.3,7.74C65.65,7.74,59.38,61.82,57,90c0,0,14.11,11.75,24.3,1.56S73.49,45.36,97.79,41.44s18,50.16-3.92,66.62-40.76-1.57-40.76-1.57L48.41,181s-12.54,6.27-29,0c0,0,2.35-31.35-.78-76.81C15.88,64.26-1.76,7.75,34.3,7.74Z"/><path class="cls-2" d="M19.24,110.52c-3.53-1.73-6.39-5.22-9.5-7.5"/><path class="cls-2" d="M19.24,113.52c-3,2.22-5.4,6-9,7"/><path class="cls-2" d="M12.74,41C9.85,38.16,2,32.46.24,32"/><path class="cls-2" d="M14.24,41c-2.57,2.79-6.5,5.4-9.5,8"/><path class="cls-2" d="M26.24,13.52c-3.67-2.14-10.77-7.12-11-10"/><path class="cls-2" d="M25.74,14c2.14-4.07,2.1-9.43,2-14"/><path class="cls-2" d="M48.74,19c-1.49-4.55.46-11.95.5-17"/><path class="cls-2" d="M48.74,16.52c5,2.79,9.44-1,14.5-1"/><path class="cls-2" d="M57.24,50.52c3.47-.59,7.41-6.92,10-9.5"/><path class="cls-2" d="M58.24,54c3,2.43,5.3,6,8.5,8"/><path class="cls-2" d="M96.24,46c-3.82-1.33-9.87-8.14-10.5-11.5"/><path class="cls-2" d="M94.74,47c1.46-3.73,4.5-14.5,4.5-14.5"/><path class="cls-2" d="M86.24,72.52c-2.92,1.33-5.55,3.61-8,5.5"/><path class="cls-2" d="M86.24,70c-2.72-1.48-4.75-4.77-7.5-6.5"/><path class="cls-2" d="M109.74,50.52c2.81-2.49,4.23-6.14,6.5-9"/><path class="cls-2" d="M110.24,51.52a13.53,13.53,0,0,0,7.5,3.5"/><path class="cls-2" d="M48.24,129.52c3.72-1.47,6.74-6.08,10-8.5"/><path class="cls-2" d="M48.24,130.52c3.38.69,6.21,4.46,8.5,7"/><path class="cls-2" d="M16.74,74.52a13.26,13.26,0,0,1-8.5-6"/><path class="cls-2" d="M17.74,79.52a45.7,45.7,0,0,0-9.5,1"/></g></g></svg>