<svg xmlns="http://www.w3.org/2000/svg" viewBox="0 0 132.01 175.28"><defs></defs><title>Ativo 11</title><g id="Camada_2" data-name="Camada 2"><g id="Objects"><path class="cls-1" d="M83,172.42c-2.6,1.37-24.21,5.69-35.6,0-3.89-46.21-5.67-68.21-3.49-112.21C45.21,34.05,49.08,0,66.3,0S88.36,32.46,87.46,74.46C86.51,118.21,83,172.42,83,172.42Z"/><path class="cls-1" d="M66.63,62.8l.56.67c.39.47,1,1.18,1.81,2.07a64.88,64.88,0,0,0,7.16,6.75,42.8,42.8,0,0,0,5.11,3.55,23.59,23.59,0,0,0,5.63,2.45,10.87,10.87,0,0,0,5,.32,9.07,9.07,0,0,0,4-2l.25-.2,0,0v0c-.34.24-.08.06-.15.1l.11-.09.21-.19c.39-.31.34-.36.4-.45.2-.28.49-.63.72-1a16.87,16.87,0,0,0,1.4-2.43,32.9,32.9,0,0,0,2.2-6,69.26,69.26,0,0,0,2-12.87c.27-4,.25-7.34.18-9.64,0-1.15-.09-2-.14-2.6a3.09,3.09,0,0,0-.07-.71,14.5,14.5,0,1,1,29,.88c0,.08-.06.63-.18,1.45s-.31,2-.58,3.5c-.55,2.94-1.42,7.06-2.84,12A91.15,91.15,0,0,1,121.83,75a53.24,53.24,0,0,1-6.07,9.24,37.49,37.49,0,0,1-4.32,4.44c-.82.71-1.66,1.36-2.62,2a14.46,14.46,0,0,1-1.39.92l-.25.14-.12.07c-.09.06.15-.11-.21.14l0,0-.09,0-.7.41a28.41,28.41,0,0,1-6.13,2.69,26.6,26.6,0,0,1-6.72,1.11A28.65,28.65,0,0,1,81.09,94a40.5,40.5,0,0,1-8.71-5.17,57.09,57.09,0,0,1-6.25-5.59A78.81,78.81,0,0,1,58.46,74c-.83-1.17-1.46-2.12-1.89-2.79l-.69-1.1a6.48,6.48,0,0,1,10.47-7.6Z"/><path class="cls-1" d="M75.43,111.94l-.85.93c-.52.55-1.27,1.34-2.25,2.29a69.65,69.65,0,0,1-8.79,7.22,55,55,0,0,1-6.8,4A42.57,42.57,0,0,1,48,129.64a33.18,33.18,0,0,1-10.83.86,31.31,31.31,0,0,1-11.31-3.25q-1.32-.68-2.55-1.44l-.08,0,0,0-.27-.19-.12-.06-.23-.14-.46-.26-.92-.52a6.21,6.21,0,0,1-.57-.38l-.63-.43-1.24-.87c-.76-.58-1.45-1.14-2.17-1.71a42.39,42.39,0,0,1-7.34-8,46.42,46.42,0,0,1-4.92-8.92,53,53,0,0,1-2.74-8.53A60.06,60.06,0,0,1,0,82.6c0-1.62.05-2.93.13-3.9a16,16,0,0,1,.21-1.83A14.5,14.5,0,0,1,28.68,83c.05-.22,0-.17-.14.17A18,18,0,0,0,28,85a34.09,34.09,0,0,0-1,7.24,26.7,26.7,0,0,0,1.48,9.74A20.59,20.59,0,0,0,31,106.8l.87,1.15.37.47.18.24a1.13,1.13,0,0,0,.25.28l.77.73.39.36.19.18.1.09c.22.16-.28-.19-.22-.15h0l0,0c.34.28.68.54,1,.8a13.08,13.08,0,0,0,4.52,2.07,15.51,15.51,0,0,0,5.36.3,32,32,0,0,0,11-3.57A55.82,55.82,0,0,0,63.52,105c.89-.66,1.55-1.2,2-1.56l.59-.49.4-.33a6.48,6.48,0,0,1,8.93,9.35Z"/></g></g></svg>