<svg xmlns="http://www.w3.org/2000/svg" viewBox="0 0 126.3 175.56"><title>Ativo 8</title><g id="Camada_2" data-name="Camada 2"><g id="Objects"><path class="cls-1" d="M75,172.42s-13.49,7.06-27.6,0c0,0-5.92-87.79-7.06-108.15C38.51,31.21,39.22,0,64.3,0S89.73,32.92,83.46,74.46,75,172.42,75,172.42Z"/><path class="cls-1" d="M69.16,111.26l0,0s-.09-.1-.07-.09l.27.19a14.18,14.18,0,0,0,1.6,1,13.74,13.74,0,0,0,2.79,1,11.09,11.09,0,0,0,3.56.28,12.67,12.67,0,0,0,4.26-1.15,22.69,22.69,0,0,0,5-3.24,41.67,41.67,0,0,0,5.3-5.38,3,3,0,0,0,.28-.36l.22-.3.5-.69c.36-.49.69-1,1-1.53a35.3,35.3,0,0,0,1.8-3.26,46.72,46.72,0,0,0,4.1-14.93A75.46,75.46,0,0,0,100,68.26a74.45,74.45,0,0,0-2.29-13.83A13.79,13.79,0,0,1,124.56,48a101.91,101.91,0,0,1,1.74,19.3,101,101,0,0,1-1.8,19.57,70.7,70.7,0,0,1-8.18,22.18,57.88,57.88,0,0,1-3.48,5.23c-.63.84-1.28,1.67-2,2.47-.35.4-.66.78-1.07,1.23l-.58.64c-.2.21-.41.45-.54.57a64.09,64.09,0,0,1-8.88,7.7,43.61,43.61,0,0,1-10.64,5.6,33.56,33.56,0,0,1-11.53,2,31.34,31.34,0,0,1-9.93-1.69,33.3,33.3,0,0,1-6.82-3.24,32.89,32.89,0,0,1-4-2.9c-.45-.39-.82-.73-1.08-1l-.48-.47a9.79,9.79,0,0,1,13.35-14.31Z"/><path class="cls-1" d="M48.48,100l-.23,0-.8-.07c-.61-.06-1.42-.15-2.45-.29a59.77,59.77,0,0,1-8.19-1.74c-1.68-.47-3.47-1.09-5.36-1.8a57.72,57.72,0,0,1-5.86-2.7,49.62,49.62,0,0,1-11.78-8.72,45.78,45.78,0,0,1-5-6L7.78,77l-1-1.64c-.66-1.09-1.21-2.2-1.74-3.31s-1-2.22-1.41-3.31a31.83,31.83,0,0,1-1.12-3.23c-.33-1.05-.64-2.09-.85-3.08s-.48-2-.64-2.89c-.28-1.84-.6-3.56-.7-5s-.27-2.8-.27-3.83C0,48.61,0,47.4,0,47.4a13.83,13.83,0,0,1,27.65-.63,13.18,13.18,0,0,1-.07,1.78l0,.47s-.08.72-.23,2c-.1.64-.09,1.37-.15,2.22s0,1.77,0,2.8c0,.5.08,1,.11,1.53a12.49,12.49,0,0,0,.2,1.6,12.82,12.82,0,0,0,.31,1.64,14,14,0,0,0,.43,1.66,14.64,14.64,0,0,0,.57,1.65l.32.83.4.8a21.62,21.62,0,0,0,1.9,3.17,23.28,23.28,0,0,0,2.56,2.92A25.13,25.13,0,0,0,37,74.38a34.4,34.4,0,0,0,3.32,2.13c1.13.61,2.22,1.17,3.28,1.62A39.19,39.19,0,0,0,48.82,80c.62.18,1.11.3,1.38.37l.18,0,0,0,.13,0A9.8,9.8,0,0,1,48.48,100Z"/></g></g></svg>