<svg xmlns="http://www.w3.org/2000/svg" viewBox="0 0 138.25 175.28"><title>Ativo 3</title><g id="Camada_2" data-name="Camada 2"><g id="Objects"><path class="cls-1" d="M88,172.42c-2.61,1.37-24.22,5.69-35.6,0-3.9-46.21-5.68-68.21-3.49-112.21C50.2,34.05,54.08,0,71.29,0S93.36,32.46,92.45,74.46C91.5,118.21,88,172.42,88,172.42Z"/><path class="cls-1" d="M72.83,89.1l.66,1c.47.67,1.19,1.67,2.16,2.91s2.17,2.71,3.63,4.29a51.73,51.73,0,0,0,5.07,4.87,28.25,28.25,0,0,0,6.22,4,9.62,9.62,0,0,0,5.66,1,6.82,6.82,0,0,0,2.2-.87,9.58,9.58,0,0,0,2.23-1.83,23.32,23.32,0,0,0,3.79-6.66,60,60,0,0,0,2.72-9.39c.7-3.31,1.22-6.72,1.6-10.07a184.75,184.75,0,0,0,1.07-18.71c0-5.55-.11-10.19-.27-13.4-.07-1.61-.15-2.86-.21-3.69s-.1-1.2-.1-1.16a14.5,14.5,0,1,1,29-.46s0,.57-.08,1.65S138,45,137.86,46.8c-.31,3.63-.81,8.76-1.68,14.9a209.86,209.86,0,0,1-4,21c-1,3.85-2.12,7.85-3.58,11.92A78.1,78.1,0,0,1,123,107a40.51,40.51,0,0,1-9.9,12,28.57,28.57,0,0,1-7.43,4.2,24.39,24.39,0,0,1-8.61,1.65,24.88,24.88,0,0,1-8.1-1.29,30.56,30.56,0,0,1-6.42-3,44.52,44.52,0,0,1-8.83-7.37,68.71,68.71,0,0,1-5.67-7c-1.53-2.14-2.73-4.05-3.69-5.64s-1.65-2.88-2.13-3.78l-.75-1.46a6.48,6.48,0,0,1,11.1-6.64Z"/><path class="cls-1" d="M80.13,49.06l-.67,1.06c-.41.64-1,1.55-1.81,2.68a79.36,79.36,0,0,1-7.3,8.92,61.43,61.43,0,0,1-5.89,5.43,43,43,0,0,1-8.09,5.16,29.63,29.63,0,0,1-11.2,3,25.59,25.59,0,0,1-6.5-.45,27,27,0,0,1-6.22-2,29.54,29.54,0,0,1-2.79-1.49l-.34-.2L29.15,71l-.3-.21,0,0-.06,0-.47-.28-.95-.54c-.17-.11-.27-.14-.51-.31l-.66-.47-1.31-1c-.86-.65-1.53-1.25-2.3-1.88a38.23,38.23,0,0,1-7.38-8.88,43.94,43.94,0,0,1-4.36-9.79,51.93,51.93,0,0,1-1.91-9.07,62.93,62.93,0,0,1-.13-13.47c.17-1.63.36-2.94.53-3.9s.32-1.58.38-1.77A14.5,14.5,0,0,1,37.31,28.3c.06-.19,0-.14-.18.23a17.58,17.58,0,0,0-.76,1.83,36.15,36.15,0,0,0-1.8,7.4,24.38,24.38,0,0,0,.52,9.76,16.71,16.71,0,0,0,2.17,4.77l.79,1.1.32.45.16.23a2.65,2.65,0,0,0,.34.35l.8.74.39.37,0,0,0,0-.25-.17.06,0,.11.1a10.86,10.86,0,0,0,.94.7,8.22,8.22,0,0,0,3.9,1.47,12.17,12.17,0,0,0,5-.66,26.07,26.07,0,0,0,5.45-2.6A44.72,44.72,0,0,0,60.26,51a66.22,66.22,0,0,0,6.85-6.54c.77-.85,1.36-1.54,1.74-2l.53-.64.27-.33a6.48,6.48,0,0,1,10.48,7.59Z"/><path class="cls-1" d="M76,122.21l-.19.29c-.11.17-.29.42-.51.74-.43.62-1,1.47-1.89,2.5a42.13,42.13,0,0,1-8.15,7.69,33.41,33.41,0,0,1-7.09,3.86,28.69,28.69,0,0,1-9.49,1.94,29.59,29.59,0,0,1-10.4-1.59c-.81-.3-1.63-.61-2.45-.94l-2.33-1.09-2.22-1.24-.27-.15-.2-.14,0,0,0,0-.11-.06-.42-.23-.85-.48L29,133l-.52-.34L27.38,132c-.74-.47-1.35-.91-2-1.36s-1.26-.91-1.87-1.39-1.22-.95-1.81-1.45a64,64,0,0,1-6.51-6.32A68.38,68.38,0,0,1,6,108.25,69.46,69.46,0,0,1,1.44,97.61a33.55,33.55,0,0,1-1.34-5,14.5,14.5,0,1,1,28.81-3.32c-.06-.45-.14.3,0,1.94A40.47,40.47,0,0,0,30,98.28,44.28,44.28,0,0,0,33.69,108a39.14,39.14,0,0,0,3.1,5c.29.42.6.82.92,1.21s.63.81,1,1.19.68.8,1,1.11l.46.51.23.26.36.33.72.66.35.32.09.09,0,0,0,0-.15-.11.13.1,1,.84,1,.72,1,.62a11.83,11.83,0,0,0,8.27,1.31,17.36,17.36,0,0,0,4.13-1.46,28.06,28.06,0,0,0,6.13-4.2c.69-.62,1.2-1.13,1.52-1.46l.33-.35a.25.25,0,0,0,.09-.09l.09-.11A6.49,6.49,0,0,1,76,122.21Z"/></g></g></svg>