<svg xmlns="http://www.w3.org/2000/svg" viewBox="0 0 139.27 185.59"><title>Ativo 9</title><g id="Camada_2" data-name="Camada 2"><g id="Objects"><path class="cls-1" d="M56.25,182.46s13.49,7,27.6,0c0,0,4.19-88,7.06-108.16C94.75,47.25,94,10,69,10s-28,20.22-21.16,74.46C53.09,126.17,56.25,182.46,56.25,182.46Z"/><path class="cls-1" d="M78,139.91l1.13.2c.81.14,2,.34,3.6.53s3.47.4,5.61.51a48.65,48.65,0,0,0,6.81-.07,24,24,0,0,0,3.28-.5,8.33,8.33,0,0,0,2.24-.81c.2-.12.3-.23.25-.24s-.23.07-.43.28a.87.87,0,0,0-.16.17l-.26.41,0,0,0-.07.08-.15.09-.15,0-.08,0,0a2.33,2.33,0,0,0-.17.26l-.07.13s0,.12,0,.08,0-.11,0-.16c.11-.34.27-.92.43-1.58.32-1.35.63-3,.91-4.72s.52-3.53.75-5.38c.46-3.71.83-7.59,1.16-11.48,1.3-15.64,1.92-31.61,2.33-43.55.16-6,.3-11,.39-14.44l.11-5.43v-.11a13.79,13.79,0,1,1,27.58.53c0,.23,0,.51,0,.74,0,0-.15,2-.41,5.61s-.7,8.61-1.2,14.68c-1.07,12.15-2.56,28.3-4.81,44.65-.57,4.1-1.19,8.21-1.93,12.33-.36,2.06-.76,4.13-1.22,6.22s-1,4.2-1.64,6.48c-.35,1.16-.75,2.36-1.31,3.75l-.49,1.12-.18.39-.23.44-.47.87-.11.2,0,.07-.09.14-.47.74c-.31.43-.63.87-1,1.27a20.43,20.43,0,0,1-4.36,4,22.52,22.52,0,0,1-4.34,2.28,30.6,30.6,0,0,1-7.43,1.91,46.41,46.41,0,0,1-6.08.4,70.44,70.44,0,0,1-9.63-.7c-2.74-.38-5.07-.83-7-1.23s-3.39-.77-4.42-1l-1.68-.45a9.79,9.79,0,0,1,4.22-19.1Z"/><path class="cls-1" d="M58.15,143.84l-1.08.16c-.66.1-1.6.23-2.79.37-2.38.27-5.76.61-10,.68a68.61,68.61,0,0,1-7.09-.23,39.83,39.83,0,0,1-9-1.76,23.84,23.84,0,0,1-5.71-2.72,18.73,18.73,0,0,1-3.2-2.61,17.35,17.35,0,0,1-1.55-1.79l-.37-.5-.43-.68-.26-.38c-.09-.1-.53-.88-.83-1.44L15.4,132l-.3-.66-.56-1.24L14.07,129c-.32-.79-.55-1.47-.83-2.22l-.7-2.1c-.88-2.75-1.58-5.37-2.22-7.92s-1.2-5-1.71-7.43c-1-4.77-1.86-9.19-2.53-13S4.9,89.38,4.55,87.16,4,83.6,4,83.6a13.81,13.81,0,1,1,27.45-2.68v.17s.05,1.18.14,3.24.27,5.12.53,8.73.59,7.81,1.07,12.23c.23,2.21.5,4.48.82,6.72s.68,4.48,1.09,6.53l.32,1.48c.12.43.22.94.33,1.32l.16.59.14.47.06.19a.27.27,0,0,0-.07-.08s-.22-.23,0,.18l.21.4.05.1,0,0v0l-.29-.46-.1-.13a4.84,4.84,0,0,0-.38-.39,1,1,0,0,0-.44-.28c-.13,0,.16.22.6.44a17.45,17.45,0,0,0,4.12,1.22,46.44,46.44,0,0,0,4.91.63,78.93,78.93,0,0,0,8,.21l2.24-.08.69,0,.47,0a9.8,9.8,0,0,1,1.94,19.47Z"/><path class="cls-2" d="M66.83,12.25a61,61,0,0,0,4-10.67"/><path class="cls-2" d="M66.83,12.91C64.31,9.44,61.29,4.64,60.16.25"/><path class="cls-2" d="M47.5,22.91c-2-3.77-3.55-8-5.34-12"/><path class="cls-2" d="M48.16,24.25c-3.87,1.25-9.23.11-12.66,1.33"/><path class="cls-2" d="M47.5,53.58c-3.65-.16-7.14-3.54-9.34-6.67"/><path class="cls-2" d="M48.16,54.91c-2.66,2.37-5.92,3.65-8.66,6"/><path class="cls-2" d="M16.83,72.91c.87-3.71,1.75-7.53,2.67-11.33"/><path class="cls-2" d="M14.83,72.25c-3.05-2.35-6.47-5.48-7.33-9.34"/><path class="cls-2" d="M8.16,97.58a55,55,0,0,1-7.33-6"/><path class="cls-2" d="M10.83,102.91c-4.53.16-7.76,6.19-10.67,6.67"/><path class="cls-2" d="M29.5,94.25c3.5-2.07,5.47-5.77,8-8.67"/><path class="cls-2" d="M30.16,95.58a22,22,0,0,1,8,6"/><path class="cls-2" d="M82.83,21.58c2.2-4,1.91-9.25,4.67-12.67"/><path class="cls-2" d="M86.83,24.91a21.48,21.48,0,0,0,11.33-1.33"/><path class="cls-2" d="M89.5,58.91c4-1.33,6-5.67,9.33-8"/><path class="cls-2" d="M89.5,62.25c3.09,1.36,6.12,2.77,8,5.33"/><path class="cls-2" d="M87.5,93.58c2.72-2.76,5-7.08,8-9.33"/><path class="cls-2" d="M86.83,98.25a59,59,0,0,1,8,3.33"/><path class="cls-2" d="M122.16,45.58c-.59-4.89-2.33-9.7-2.66-14.67"/><path class="cls-2" d="M124.16,43.58c2.51-3,6.1-5.19,9.34-7.33"/><path class="cls-2" d="M129.5,71.58c3.22-1.91,5.91-5,9.33-6.67"/><path class="cls-2" d="M130.16,72.91a17.44,17.44,0,0,0,5.34,5.34"/><path class="cls-2" d="M108.16,116.25c-4.19.57-10.35-1.58-10.66-3.34"/><path class="cls-2" d="M105.5,120.91a9.18,9.18,0,0,0-8.67,4"/><path class="cls-2" d="M18.16,131.58c-3.14.26-7.17-.6-8-2"/><path class="cls-2" d="M19.5,135.58c-1.61,2.55-4.44,7.92-5.34,8.67"/><path class="cls-2" d="M127.5,106.25c2.46-2.88,5.29-5.36,8-8"/><path class="cls-2" d="M126.83,110.25c3.37,1.26,7,2.76,9.33,5.33"/></g></g></svg>